<?xml version="1.0" encoding="UTF-8" standalone="no" ?>
<!DOCTYPE svg PUBLIC "-//W3C//DTD SVG 1.1//EN" "http://www.w3.org/Graphics/SVG/1.1/DTD/svg11.dtd">
<svg xmlns="http://www.w3.org/2000/svg" xmlns:xlink="http://www.w3.org/1999/xlink" version="1.1" width="1080" height="1080" viewBox="0 0 1080 1080" xml:space="preserve">
<desc>Created with Fabric.js 5.2.4</desc>
<defs>
</defs>
<rect x="0" y="0" width="100%" height="100%" fill="transparent"></rect>
<g transform="matrix(1 0 0 1 540 540)" id="4889d6a0-c573-4930-9dd8-bed40dbd5cf8"  >
<rect style="stroke: none; stroke-width: 1; stroke-dasharray: none; stroke-linecap: butt; stroke-dashoffset: 0; stroke-linejoin: miter; stroke-miterlimit: 4; fill: rgb(255,255,255); fill-rule: nonzero; opacity: 1; visibility: hidden;" vector-effect="non-scaling-stroke"  x="-540" y="-540" rx="0" ry="0" width="1080" height="1080" />
</g>
<g transform="matrix(1 0 0 1 540 540)" id="e50a3b22-a5f8-4202-9f02-d602480f18c4"  >
</g>
<g transform="matrix(1 0 0 1 540 540)"  >
<rect style="stroke: none; stroke-width: 1; stroke-dasharray: none; stroke-linecap: butt; stroke-dashoffset: 0; stroke-linejoin: miter; stroke-miterlimit: 4; fill: rgb(255,255,255); fill-rule: nonzero; opacity: 1; visibility: hidden;" vector-effect="non-scaling-stroke"  x="-540" y="-540" rx="0" ry="0" width="1080" height="1080" />
</g>
<g transform="matrix(57.16 0 0 54.6 539.87 557.81)"  >
<path style="stroke: none; stroke-width: 3.45; stroke-dasharray: none; stroke-linecap: butt; stroke-dashoffset: 0; stroke-linejoin: miter; stroke-miterlimit: 4; fill: rgb(0,0,0); fill-rule: nonzero; opacity: 1;" vector-effect="non-scaling-stroke"  transform=" translate(-11.29, -1044.83)" d="M 18.799222 1042.7438 C 17.707254 1041.5892 15.93686 1041.5892 14.844892 1042.7438 C 14.591177 1043.0121 14.387215 1043.3041 14.251729 1043.6323 L 8.3203016 1043.6323 C 8.1845499 1043.3045 7.980921500000001 1043.0121 7.7271388000000005 1042.7437 C 6.635237900000001 1041.5892 4.864843800000001 1041.5892 3.7728758000000004 1042.7438 C 2.6809746000000008 1043.8984 2.6809750000000006 1045.7703 3.7728759000000003 1046.9249 C 4.8648439 1048.0795 6.635237500000001 1048.0795 7.7271386 1046.925 C 7.9808544999999995 1046.6567 8.1848833 1046.3645999999999 8.3202346 1046.0365 L 14.251729 1046.0365 C 14.387549 1046.3642 14.591175999999999 1046.6566 14.844959 1046.925 C 15.936860999999999 1048.0795 17.707254 1048.0795 18.799155 1046.925 C 19.891123 1045.7703 19.891123 1043.8984 18.799222 1042.7438 z" stroke-linecap="round" />
</g>
<g transform="matrix(55.69 9.49 -7.08 41.85 449.48 440.71)"  >
<path style="stroke: rgb(0,0,0); stroke-opacity: 0.94; stroke-width: 1; stroke-dasharray: 2.07016 0.690053; stroke-linecap: butt; stroke-dashoffset: 0; stroke-linejoin: miter; stroke-miterlimit: 4; fill: rgb(0,0,0); fill-rule: evenodd; opacity: 1;" vector-effect="non-scaling-stroke"  transform=" translate(-11.46, -1044.13)" d="M 11.460805 1034.6713 L 11.460805 1053.5933" stroke-linecap="round" />
</g>
<g transform="matrix(56.74 -16.76 15.4 51.73 662.76 536.46)"  >
<path style="stroke: rgb(0,0,0); stroke-opacity: 0.94; stroke-width: 1; stroke-dasharray: 2.07016 0.690053; stroke-linecap: butt; stroke-dashoffset: 0; stroke-linejoin: miter; stroke-miterlimit: 4; fill: rgb(0,0,0); fill-rule: evenodd; opacity: 1;" vector-effect="non-scaling-stroke"  transform=" translate(-11.46, -1044.13)" d="M 11.460805 1034.6713 L 11.460805 1053.5933" stroke-linecap="round" />
</g>
<g transform="matrix(-23.24 52.95 -22.53 -10.1 599.22 931.57)"  >
<path style="stroke: rgb(0,0,0); stroke-opacity: 0.94; stroke-width: 1; stroke-dasharray: 2.07016 0.690053; stroke-linecap: butt; stroke-dashoffset: 0; stroke-linejoin: miter; stroke-miterlimit: 4; fill: rgb(0,0,0); fill-rule: evenodd; opacity: 1;" vector-effect="non-scaling-stroke"  transform=" translate(-11.46, -1044.13)" d="M 11.460805 1034.6713 L 11.460805 1053.5933" stroke-linecap="round" />
</g>
</svg>